<svg width="20" height="20" viewBox="0 0 20 20" fill="none" xmlns="http://www.w3.org/2000/svg">
<path d="M19.0625 12.1875H17.8125C17.2957 12.1875 16.875 12.6082 16.875 13.125V16.875H3.125V13.125C3.125 12.6082 2.7043 12.1875 2.1875 12.1875H0.9375C0.420703 12.1875 0 12.6082 0 13.125V18.4375C0 19.2992 0.700781 20 1.5625 20H18.4375C19.2992 20 20 19.2992 20 18.4375V13.125C20 12.6082 19.5793 12.1875 19.0625 12.1875Z" fill="#242426"/>
<path d="M5.89963 7.27891C6.26526 7.64453 6.85979 7.64453 7.22541 7.27891L8.12502 6.3793V14.6875C8.12502 15.2043 8.54573 15.625 9.06252 15.625H10.9375C11.4543 15.625 11.875 15.2043 11.875 14.6875V6.3793L12.7746 7.27891C13.1403 7.64453 13.7348 7.64453 14.1004 7.27891L15.0914 6.28789C15.4571 5.92227 15.4571 5.32773 15.0914 4.96211L10.2211 0.0914062C10.0989 -0.0304687 9.9012 -0.0304687 9.77893 0.0914062L4.90862 4.96211C4.54299 5.32773 4.54299 5.92227 4.90862 6.28789L5.89963 7.27891Z" fill="#242426"/>
</svg>
