<svg width="100" height="100" viewBox="0 0 100 100" fill="none" xmlns="http://www.w3.org/2000/svg">
<rect x="0.5" y="0.5" width="99" height="99" rx="9.5" fill="#242426" stroke="#EBEBF0"/>
<path d="M73.5148 20H65.1172C64.1464 20 63.3594 20.787 63.3594 21.7578C63.3594 22.7286 64.1464 23.5156 65.1172 23.5156H73.5148C75.1522 23.5156 76.4844 24.8478 76.4844 26.4853V34.8828C76.4844 35.8536 77.2714 36.6406 78.2422 36.6406C79.213 36.6406 80 35.8536 80 34.8828V26.4853C80 22.9093 77.0907 20 73.5148 20V20Z" fill="#FF9F0A"/>
<path d="M21.7578 36.6406C22.7286 36.6406 23.5156 35.8536 23.5156 34.8828V26.4853C23.5156 24.8478 24.8478 23.5156 26.4852 23.5156H34.8828C35.8536 23.5156 36.6406 22.7286 36.6406 21.7578C36.6406 20.787 35.8536 20 34.8828 20H26.4852C22.9093 20 20 22.9093 20 26.4853V34.8828C20 35.8536 20.787 36.6406 21.7578 36.6406Z" fill="#FF9F0A"/>
<path d="M34.8828 76.4844H26.4852C24.8478 76.4844 23.5156 75.1522 23.5156 73.5147V65.1172C23.5156 64.1464 22.7286 63.3594 21.7578 63.3594C20.787 63.3594 20 64.1464 20 65.1172V73.5147C20 77.0907 22.9093 80 26.4852 80H34.8828C35.8536 80 36.6406 79.213 36.6406 78.2422C36.6406 77.2714 35.8536 76.4844 34.8828 76.4844Z" fill="#FF9F0A"/>
<path d="M78.2422 63.3594C77.2714 63.3594 76.4844 64.1464 76.4844 65.1172V73.5147C76.4844 75.1522 75.1522 76.4844 73.5148 76.4844H65.1172C64.1464 76.4844 63.3594 77.2714 63.3594 78.2422C63.3594 79.213 64.1464 80 65.1172 80H73.5148C77.0908 80 80 77.0907 80 73.5147V65.1172C80 64.1464 79.213 63.3594 78.2422 63.3594Z" fill="#FF9F0A"/>
<path d="M60.0364 32.8906H65.6116C66.3729 32.8906 66.9923 33.51 66.9923 34.2713V39.8464C66.9923 40.8172 67.7793 41.6042 68.7501 41.6042C69.7209 41.6042 70.5079 40.8172 70.5079 39.8464V34.2713C70.5079 31.5714 68.3113 29.375 65.6116 29.375H60.0364C59.0656 29.375 58.2786 30.162 58.2786 31.1328C58.2786 32.1036 59.0656 32.8906 60.0364 32.8906Z" fill="#FF9F0A"/>
<path d="M29.4922 34.2713V39.8464C29.4922 40.8172 30.2792 41.6042 31.25 41.6042C32.2208 41.6042 33.0078 40.8172 33.0078 39.8464V34.2713C33.0078 33.51 33.6273 32.8906 34.3885 32.8906H39.9637C40.9345 32.8906 41.7215 32.1036 41.7215 31.1328C41.7215 30.162 40.9345 29.375 39.9637 29.375H34.3885C31.6887 29.375 29.4922 31.5714 29.4922 34.2713Z" fill="#FF9F0A"/>
<path d="M39.9637 66.875H34.3885C33.6271 66.875 33.0078 66.2556 33.0078 65.4943V59.9192C33.0078 58.9484 32.2208 58.1614 31.25 58.1614C30.2792 58.1614 29.4922 58.9484 29.4922 59.9192V65.4943C29.4922 68.1941 31.6887 70.3906 34.3885 70.3906H39.9637C40.9345 70.3906 41.7215 69.6036 41.7215 68.6328C41.7215 67.662 40.9345 66.875 39.9637 66.875Z" fill="#FF9F0A"/>
<path d="M70.5079 65.4943V59.9192C70.5079 58.9484 69.7209 58.1614 68.7501 58.1614C67.7793 58.1614 66.9923 58.9484 66.9923 59.9192V65.4943C66.9923 66.2556 66.3728 66.875 65.6116 66.875H60.0364C59.0656 66.875 58.2786 67.662 58.2786 68.6328C58.2786 69.6036 59.0656 70.3906 60.0364 70.3906H65.6116C68.3113 70.3906 70.5079 68.1941 70.5079 65.4943Z" fill="#FF9F0A"/>
<path d="M20.1172 50C20.1172 50.9708 20.9042 51.7578 21.875 51.7578H78.125C79.0958 51.7578 79.8828 50.9708 79.8828 50C79.8828 49.0292 79.0958 48.2422 78.125 48.2422H21.875C20.9042 48.2422 20.1172 49.0292 20.1172 50Z" fill="#FF9F0A"/>
</svg>
