<svg width="60" height="60" viewBox="0 0 60 60" fill="none" xmlns="http://www.w3.org/2000/svg">
<path d="M53.5148 0L45.1172 0C44.1464 0 43.3594 0.787031 43.3594 1.75781C43.3594 2.72859 44.1464 3.51562 45.1172 3.51562H53.5148C55.1522 3.51562 56.4844 4.84781 56.4844 6.48527V14.8828C56.4844 15.8536 57.2714 16.6406 58.2422 16.6406C59.213 16.6406 60 15.8536 60 14.8828V6.48527C60 2.9093 57.0907 0 53.5148 0V0Z" fill="#242426"/>
<path d="M1.75781 16.6406C2.72859 16.6406 3.51562 15.8536 3.51562 14.8828V6.48527C3.51562 4.84781 4.84781 3.51562 6.48516 3.51562H14.8828C15.8536 3.51562 16.6406 2.72859 16.6406 1.75781C16.6406 0.787031 15.8536 0 14.8828 0L6.48516 0C2.9093 0 0 2.9093 0 6.48527L0 14.8828C0 15.8536 0.787031 16.6406 1.75781 16.6406Z" fill="#242426"/>
<path d="M14.8828 56.4844H6.48516C4.84781 56.4844 3.51562 55.1522 3.51562 53.5147V45.1172C3.51562 44.1464 2.72859 43.3594 1.75781 43.3594C0.787031 43.3594 0 44.1464 0 45.1172L0 53.5147C0 57.0907 2.9093 60 6.48516 60H14.8828C15.8536 60 16.6406 59.213 16.6406 58.2422C16.6406 57.2714 15.8536 56.4844 14.8828 56.4844Z" fill="#242426"/>
<path d="M58.2422 43.3594C57.2714 43.3594 56.4844 44.1464 56.4844 45.1172V53.5147C56.4844 55.1522 55.1522 56.4844 53.5148 56.4844H45.1172C44.1464 56.4844 43.3594 57.2714 43.3594 58.2422C43.3594 59.213 44.1464 60 45.1172 60H53.5148C57.0908 60 60 57.0907 60 53.5147V45.1172C60 44.1464 59.213 43.3594 58.2422 43.3594Z" fill="#242426"/>
<path d="M40.0364 12.8906H45.6116C46.3729 12.8906 46.9923 13.51 46.9923 14.2713V19.8464C46.9923 20.8172 47.7793 21.6042 48.7501 21.6042C49.7209 21.6042 50.5079 20.8172 50.5079 19.8464V14.2713C50.5079 11.5714 48.3113 9.375 45.6116 9.375H40.0364C39.0656 9.375 38.2786 10.162 38.2786 11.1328C38.2786 12.1036 39.0656 12.8906 40.0364 12.8906Z" fill="#242426"/>
<path d="M9.49219 14.2713V19.8464C9.49219 20.8172 10.2792 21.6042 11.25 21.6042C12.2208 21.6042 13.0078 20.8172 13.0078 19.8464V14.2713C13.0078 13.51 13.6273 12.8906 14.3885 12.8906H19.9637C20.9345 12.8906 21.7215 12.1036 21.7215 11.1328C21.7215 10.162 20.9345 9.375 19.9637 9.375H14.3885C11.6887 9.375 9.49219 11.5714 9.49219 14.2713Z" fill="#242426"/>
<path d="M19.9637 46.875H14.3885C13.6271 46.875 13.0078 46.2556 13.0078 45.4943V39.9192C13.0078 38.9484 12.2208 38.1614 11.25 38.1614C10.2792 38.1614 9.49219 38.9484 9.49219 39.9192V45.4943C9.49219 48.1941 11.6887 50.3906 14.3885 50.3906H19.9637C20.9345 50.3906 21.7215 49.6036 21.7215 48.6328C21.7215 47.662 20.9345 46.875 19.9637 46.875Z" fill="#242426"/>
<path d="M50.5079 45.4943V39.9192C50.5079 38.9484 49.7209 38.1614 48.7501 38.1614C47.7793 38.1614 46.9923 38.9484 46.9923 39.9192V45.4943C46.9923 46.2556 46.3728 46.875 45.6116 46.875H40.0364C39.0656 46.875 38.2786 47.662 38.2786 48.6328C38.2786 49.6036 39.0656 50.3906 40.0364 50.3906H45.6116C48.3113 50.3906 50.5079 48.1941 50.5079 45.4943Z" fill="#242426"/>
<path d="M0.117188 30C0.117188 30.9708 0.904219 31.7578 1.875 31.7578H58.125C59.0958 31.7578 59.8828 30.9708 59.8828 30C59.8828 29.0292 59.0958 28.2422 58.125 28.2422H1.875C0.904219 28.2422 0.117188 29.0292 0.117188 30Z" fill="#242426"/>
</svg>
