<?xml version="1.0" encoding="iso-8859-1"?>
<!-- Generator: Adobe Illustrator 19.0.0, SVG Export Plug-In . SVG Version: 6.00 Build 0)  -->
<svg version="1.1" id="Capa_1" xmlns="http://www.w3.org/2000/svg" xmlns:xlink="http://www.w3.org/1999/xlink" x="0px" y="0px"
	 viewBox="0 0 512 512" style="enable-background:new 0 0 512 512;" xml:space="preserve">
<g>
	<g>
		<path d="M141,255.777c0-15.583,3.122-30.45,8.763-44.016L27.067,140.923C9.365,176.124,0,215.23,0,255.777
			c0,68.38,26.629,132.667,74.98,181.02c12.418,12.418,25.895,23.392,40.215,32.862l70.833-122.687
			C158.668,325.931,141,292.882,141,255.777z"/>
	</g>
</g>
<g>
	<g>
		<path d="M74.98,74.758c-12.418,12.418-23.392,25.895-32.862,40.215l122.686,70.832c18.159-23.611,45.261-40.002,76.196-44.05
			V0.224C178.261,3.826,119.78,29.96,74.98,74.758z"/>
	</g>
</g>
<g>
	<g>
		<path d="M437.02,74.758C392.22,29.96,333.739,3.826,271,0.224v141.531c56.349,7.373,100,55.694,100,114.022
			c0,63.411-51.589,115-115,115c-15.584,0-30.45-3.122-44.016-8.763L141.146,484.71c35.2,17.703,74.307,27.067,114.854,27.067
			c68.38,0,132.667-26.629,181.02-74.98c48.352-48.352,74.98-112.64,74.98-181.02S485.371,123.11,437.02,74.758z"/>
	</g>
</g>
<g>
</g>
<g>
</g>
<g>
</g>
<g>
</g>
<g>
</g>
<g>
</g>
<g>
</g>
<g>
</g>
<g>
</g>
<g>
</g>
<g>
</g>
<g>
</g>
<g>
</g>
<g>
</g>
<g>
</g>
</svg>
