<svg width="20" height="18" viewBox="0 0 20 18" fill="none" xmlns="http://www.w3.org/2000/svg">
<path d="M19.5669 9.73903L16.234 13.0724C15.9564 13.35 15.5792 13.5065 15.1861 13.5065C14.793 13.5065 14.4157 13.3505 14.1386 13.0724L10.8052 9.73903C10.2269 9.16075 10.2269 8.22245 10.8052 7.64417C11.3835 7.06539 12.3218 7.06539 12.9001 7.64417L13.8048 8.54888C13.5737 5.76412 11.2388 3.56802 8.39527 3.56802C5.40063 3.56802 2.96304 6.00511 2.96304 9.00025C2.96304 11.9949 5.40063 14.4325 8.39527 14.4325C9.21356 14.4325 9.87679 15.0957 9.87679 15.914C9.87679 16.7323 9.21356 17.3955 8.39527 17.3955C3.76651 17.3955 0 13.6295 0 9.00025C0 4.371 3.76651 0.60498 8.39527 0.60498C12.8082 0.60498 16.4281 4.02877 16.7589 8.35727L17.471 7.64417C18.0498 7.06539 18.9881 7.06539 19.5659 7.64417C20.1447 8.22196 20.1447 9.16025 19.5669 9.73903Z" fill="#242426"/>
</svg>
